<svg width="175" height="156" viewBox="0 0 175 156" fill="none" xmlns="http://www.w3.org/2000/svg">
<path d="M137.786 0.527463C136.972 0.369666 136.185 0.901024 136.027 1.71428C135.87 2.52754 136.401 3.31474 137.214 3.47254L137.786 0.527463ZM143.939 73.9393C143.354 74.5251 143.354 75.4749 143.939 76.0607L153.485 85.6066C154.071 86.1924 155.021 86.1924 155.607 85.6066C156.192 85.0208 156.192 84.0711 155.607 83.4853L147.121 75L155.607 66.5147C156.192 65.9289 156.192 64.9792 155.607 64.3934C155.021 63.8076 154.071 63.8076 153.485 64.3934L143.939 73.9393ZM137.214 3.47254C145.179 5.01787 152.56 9.94742 158.468 16.6555C164.373 23.3592 168.723 31.7474 170.665 40.0299C172.61 48.3287 172.105 56.3564 168.546 62.4894C165.027 68.5538 158.363 73.0392 147.369 74.0058L147.631 76.9942C159.387 75.9608 167.035 71.0712 171.141 63.995C175.207 56.9874 175.64 48.1088 173.585 39.3451C171.527 30.5651 166.94 21.7345 160.719 14.6726C154.503 7.61508 146.571 2.23213 137.786 0.527463L137.214 3.47254ZM148 73.5H145V76.5H148V73.5Z" fill="#736C66"/>
<path d="M37.5019 69.5275C38.3151 69.3697 39.1023 69.901 39.2601 70.7143C39.4179 71.5275 38.8866 72.3147 38.0733 72.4725L37.5019 69.5275ZM31.3483 142.939C31.934 143.525 31.934 144.475 31.3483 145.061L21.8023 154.607C21.2165 155.192 20.2668 155.192 19.681 154.607C19.0952 154.021 19.0952 153.071 19.681 152.485L28.1663 144L19.681 135.515C19.0952 134.929 19.0952 133.979 19.681 133.393C20.2668 132.808 21.2165 132.808 21.8023 133.393L31.3483 142.939ZM38.0733 72.4725C30.1089 74.0179 22.7281 78.9474 16.8195 85.6555C10.9147 92.3592 6.56469 100.747 4.623 109.03C2.67749 117.329 3.1825 125.356 6.74125 131.489C10.2602 137.554 16.9249 142.039 27.919 143.006L27.6562 145.994C15.9003 144.961 8.2525 140.071 4.14645 132.995C0.0801931 125.987 -0.352297 117.109 1.70219 108.345C3.76051 99.5651 8.34796 90.7345 14.5682 83.6726C20.7846 76.6151 28.7163 71.2321 37.5019 69.5275L38.0733 72.4725ZM27.2876 142.5H30.2876V145.5H27.2876V142.5Z" fill="#736C66"/>
</svg>
